<?xml version="1.0" encoding="UTF-8"?>
<svg width="1440px" height="379px" viewBox="0 0 1440 379" version="1.1" xmlns="http://www.w3.org/2000/svg" xmlns:xlink="http://www.w3.org/1999/xlink">
    <!-- Generator: Sketch 52.6 (67491) - http://www.bohemiancoding.com/sketch -->
    <title>Group 20</title>
    <desc>Created with Sketch.</desc>
    <defs>
        <linearGradient x1="50%" y1="1.57153179%" x2="50%" y2="97.2908169%" id="linearGradient-1">
            <stop stop-color="#69DAF0" offset="0%"></stop>
            <stop stop-color="#C5F6FF" offset="100%"></stop>
        </linearGradient>
        <path d="M0,0 C2.76278766,85.1619979 15.6097503,121.451345 38.5408878,108.868042 C72.9375942,89.9930875 149.604952,230.544089 211.767674,181.671439 C273.930396,132.798788 293.481891,90.667193 315.616341,108.868042 C330.372641,121.001942 352.255426,84.7125942 381.264697,0 L0,0 Z" id="path-2"></path>
        <ellipse id="path-4" cx="191.461185" cy="96.8573448" rx="191.461185" ry="96.8573448"></ellipse>
        <path d="M18.8875902,63.7142962 C-0.51047541,59.8313641 -4.96678777,51.8007545 5.51865308,39.6224675 C21.2468143,21.3550369 -5.70836108,4.41133315 13.9070058,0.704897963 C33.5223726,-3.00153723 33.8293434,8.38251371 30.6837111,23.7377452 C27.5380789,39.0929767 30.1594391,37.7692499 32.2565272,50.741773 C33.654586,59.3901218 29.1982737,63.7142962 18.8875902,63.7142962 Z" id="path-6"></path>
        <path d="M22.7921957,76.3780159 C-0.565861239,71.7301496 -5.93190136,62.117517 6.69407539,47.5401182 C25.6330405,25.6740199 -6.82486213,5.3924215 16.7948568,0.955821851 C40.4145757,-3.4807778 40.7842126,10.1459211 36.9964196,28.5261197 C33.2086265,46.9063182 36.3651207,45.3218184 38.8903161,60.8499171 C40.5737796,71.201983 35.2077395,76.3780159 22.7921957,76.3780159 Z" id="path-8"></path>
        <linearGradient x1="75.5902778%" y1="0%" x2="-10.1273148%" y2="141.064815%" id="linearGradient-10">
            <stop stop-color="#FD9F77" offset="0%"></stop>
            <stop stop-color="#FD427C" offset="100%"></stop>
        </linearGradient>
        <linearGradient x1="196.880486%" y1="100%" x2="-47.0856463%" y2="83.5386344%" id="linearGradient-11">
            <stop stop-color="#6280E2" offset="0%"></stop>
            <stop stop-color="#37E3D8" offset="100%"></stop>
        </linearGradient>
        <polygon id="path-12" points="11.0938996 62.5554327 86.9854463 100.702283 135.514735 38.1468504 59.623188 5.61446564e-14"></polygon>
        <polygon id="path-14" points="0 0 0 28.6216565 25.6939252 41.4806616 25.6939252 12.8590051"></polygon>
        <polygon id="path-16" points="0 0 0 28.6216565 25.6939252 41.4806616 25.6939252 12.8590051"></polygon>
        <polygon id="path-18" points="0 26.96243 0 8.71093893 21.1353256 0 21.1353256 18.6662977"></polygon>
        <path d="M18.8875902,63.7142962 C-0.51047541,59.8313641 -4.96678777,51.8007545 5.51865308,39.6224675 C21.2468143,21.3550369 -5.70836108,4.41133315 13.9070058,0.704897963 C33.5223726,-3.00153723 33.8293434,8.38251371 30.6837111,23.7377452 C27.5380789,39.0929767 30.1594391,37.7692499 32.2565272,50.741773 C33.654586,59.3901218 29.1982737,63.7142962 18.8875902,63.7142962 Z" id="path-20"></path>
        <linearGradient x1="69.7849026%" y1="15.0669643%" x2="50%" y2="100%" id="linearGradient-22">
            <stop stop-color="#FFFFFF" offset="0%"></stop>
            <stop stop-color="#CCE5EB" offset="100%"></stop>
        </linearGradient>
    </defs>
    <g id="Page-1" stroke="none" stroke-width="1" fill="none" fill-rule="evenodd">
        <g id="Desktop-HD">
            <g id="Group-20">
                <polygon id="Path" fill="url(#linearGradient-1)" points="-9.24538224e-14 346 1440 346 1440 1.80064297e-14 -1.13686838e-13 3.84137167e-14"></polygon>
                <g id="Group-8" transform="translate(508.000000, 33.000000)">
                    <g id="Group-32">
                        <g id="Group-16">
                            <g id="Group-15" transform="translate(0.000000, 49.361987)">
                                <g id="Group-33" transform="translate(2.072091, 103.701654)">
                                    <mask id="mask-3" fill="white">
                                        <use xlink:href="#path-2"></use>
                                    </mask>
                                    <use id="Path-16" fill="#D4BCBC" xlink:href="#path-2"></use>
                                    <path d="M4.18849196,9.5555371 C-41.856233,8.71093893 4.18849196,90.4278422 54.9337577,87.5241959 C116.821158,83.9829962 164.696206,192.47027 230.416491,129.834471 C296.136775,67.1986718 365.928433,84.2207279 374.219588,9.5555371 C374.734573,4.91788886 296.136775,37.5278898 271.858306,33.1845293 C190.529341,18.634971 36.2852286,10.1442874 4.18849196,9.5555371 Z" id="Path-16-Copy" fill="#BF9D9D" mask="url(#mask-3)"></path>
                                </g>
                                <g id="Group-3">
                                    <mask id="mask-5" fill="white">
                                        <use xlink:href="#path-4"></use>
                                    </mask>
                                    <use id="Oval" fill="#FBDCDC" xlink:href="#path-4"></use>
                                    <polygon id="Path-17" fill-opacity="0.2" fill="#3A3A3A" mask="url(#mask-5)" points="284.705268 102.457234 432.238129 116.560659 342.309391 13.2738117 146.289606 6.63690585"></polygon>
                                    <g id="Group-38" mask="url(#mask-5)">
                                        <g transform="translate(324.310881, 55.068174)">
                                            <polygon id="Path-17-Copy-3" fill-opacity="0.2" fill="#3A3A3A" points="16.5760798 73.1962066 130.239752 79.5012672 117.413891 53.8371987 16.465512 66.6692329"></polygon>
                                            <g id="Group-17-Copy" stroke-width="1" fill="none" transform="translate(0.212049, 0.078261)">
                                                <path d="M15.3760541,60.063998 L14.263243,71.4358904 C16.9525366,73.6547962 19.8272987,73.9321595 22.8875294,72.2679801 C22.8875294,65.2414449 22.3311238,61.1734509 21.2183127,60.063998 L15.3760541,60.063998 Z" id="Path-20" fill="#FFFFFF"></path>
                                                <mask id="mask-7" fill="white">
                                                    <use xlink:href="#path-6"></use>
                                                </mask>
                                                <use id="Path-19" fill="#44C6DB" xlink:href="#path-6"></use>
                                                <path d="M28.5882157,57.4092356 C15.9200912,53.5263035 13.0098464,45.4956939 19.8574812,33.3174069 C30.1289335,15.0499763 12.5255536,-1.89372741 25.3355891,-5.6001626 C38.1456246,-9.30659779 38.3460953,2.07745315 36.2918049,17.4326847 C34.2375144,32.7879162 35.9494231,31.4641893 37.3189501,44.4367125 C38.2319681,53.0850612 35.3217233,57.4092356 28.5882157,57.4092356 Z" id="Path-19-Copy" fill="#336995" opacity="0.202869234" mask="url(#mask-7)"></path>
                                            </g>
                                        </g>
                                    </g>
                                    <path d="M292.164795,147.878559 L159.219381,203.255242 L93.753892,210.721761 L252.756639,145.560357 L220.470455,127.345631 L241.605781,119.049499 L292.164795,147.878559 Z" id="Combined-Shape" fill="#FFE9E9" mask="url(#mask-5)"></path>
                                </g>
                            </g>
                            <g id="Group-39" transform="translate(39.461140, 45.893242)">
                                <polygon id="Path-17-Copy" fill-opacity="0.2" fill="#3A3A3A" points="20.4269926 88.0025076 134.08895 94.3119958 121.263282 68.6299048 20.3164265 81.4709503"></polygon>
                                <path d="M61.1105661,164.372603 L160.441299,169.88655 C165.037274,170.141678 168.969869,166.622725 169.224996,162.026751 C169.305305,160.580019 169.007063,159.137344 168.35969,157.841046 L168.35969,157.841046 C164.518746,150.149948 156.236433,145.7264 147.708304,146.811229 L61,157.841046 L61.1105661,164.372603 Z" id="Path-17-Copy-2" fill-opacity="0.2" fill="#3A3A3A"></path>
                                <g id="Group-17" transform="translate(0.127113, 0.001750)">
                                    <path d="M18.6413882,72.0609976 L17.3145949,85.6762092 C20.521012,88.3328358 23.9485614,88.6649141 27.5972429,86.6724441 C27.5972429,78.2597931 26.9338462,73.3893109 25.607053,72.0609976 L18.6413882,72.0609976 Z" id="Path-20" fill="#FFFFFF"></path>
                                    <mask id="mask-9" fill="white">
                                        <use xlink:href="#path-8"></use>
                                    </mask>
                                    <use id="Path-19" fill="#44C6DB" xlink:href="#path-8"></use>
                                    <path d="M34.4780227,68.6281547 C19.2353605,63.9802884 15.7336678,54.3676558 23.9729447,39.790257 C36.33186,17.9241587 15.1509524,-2.3574397 30.5643662,-6.79403935 C45.9777799,-11.230639 46.2189922,2.39605993 43.7472091,20.7762585 C41.2754261,39.156457 43.3352453,37.5719572 44.9831007,53.1000559 C46.0816709,63.4521218 42.5799783,68.6281547 34.4780227,68.6281547 Z" id="Path-19-Copy" fill="#336995" opacity="0.202869234" mask="url(#mask-9)"></path>
                                </g>
                            </g>
                            <g id="Group-14" transform="translate(96.973847, 0.000000)">
                                <g id="Group-6">
                                    <polygon id="Path-10" fill="#D8D8D8" points="189.389094 90.0130356 180.271895 86.6945827 189.389094 86.6945827"></polygon>
                                    <polygon id="Path-8" fill="#3F83B0" points="94.4873379 119.049499 187.731421 82.5465165 187.731421 151.404415 94.4873379 188.322204"></polygon>
                                    <polygon id="Path-7" fill="#45C3DB" points="4.55859964 73.8355776 5.01741973 143.108282 94.4873379 188.322204 94.4873379 115.316239"></polygon>
                                    <g id="Group-11">
                                        <g id="Group-2">
                                            <polygon id="Path-6" fill="#3F83B0" points="147.532861 45.6287277 187.731421 82.7539199 94.0729198 119.464305"></polygon>
                                            <polygon id="Path-9" fill="#83343A" points="144.232865 48.9756478 189.389094 90.0415028 192.290021 86.6945827 147.552047 45.2139211"></polygon>
                                            <polygon id="Path-5-Copy-2" fill="#3A638F" opacity="0.192824591" points="4.55859964 78.3984504 4.55859964 83.4904923 94.4873379 127.760438 94.4873379 124.027178 94.4873379 118.634692 8.56690632 80.3600592"></polygon>
                                            <polygon id="Path-14" fill="#1A345E" opacity="0.312872024" points="94.2984316 122.367952 94.6121436 127.515077 150.848206 54.3396667 146.704025 51.850827 94.2984316 118.682022 90.7575746 123.197565"></polygon>
                                            <polygon id="Rectangle_Top_Isometric-Copy" fill="#83343A" points="1.65767259 79.6027331 91.6465961 124.856791 149.190534 51.4761574 59.2016101 6.22209924"></polygon>
                                            <polygon id="Rectangle_Top_Isometric-Copy-3" fill="url(#linearGradient-10)" points="0 74.2102471 89.9889235 119.464305 147.532861 45.2540582 57.5439375 -8.2895014e-16"></polygon>
                                            <polygon id="Rectangle_Top_Isometric-Copy-2" fill="#234275" points="11.5083178 73.7552113 87.3998644 111.902062 135.929153 49.346629 60.0376061 11.1997786"></polygon>
                                            <g id="Group" transform="translate(0.000000, 5.807293)">
                                                <polygon id="Path-5" fill="#4592C4" points="11.18929 62.635799 11.18929 65.5394453 87.0278112 103.605929 87.0278112 100.383201 14.9190534 64.2950255"></polygon>
                                                <polygon id="Path-5-Copy" fill="#BC4D55" points="0 68.4430916 0 73.5351336 91.5864109 119.049499 89.9287383 113.657013"></polygon>
                                                <polygon id="Path-3" fill="#234275" points="135.514735 38.1622087 135.514735 41.065855 131.370553 44.3843079 130.956135 41.065855"></polygon>
                                                <mask id="mask-13" fill="white">
                                                    <use xlink:href="#path-12"></use>
                                                </mask>
                                                <use id="Rectangle_Top_Isometric" fill="url(#linearGradient-11)" xlink:href="#path-12"></use>
                                                <polygon id="Path-15" fill="#FFFFFF" opacity="0.806756882" mask="url(#mask-13)" points="26.9371797 72.1763512 123.496608 2.90364631 102.775701 -12.4441985 -8.28836297 63.8802188"></polygon>
                                                <polygon id="Path-15-Copy" fill="#FFFFFF" opacity="0.806756882" mask="url(#mask-13)" points="34.3967063 93.7462952 130.956135 24.4735903 114.379409 21.569944 3.31534519 97.8943613"></polygon>
                                                <path d="M22.37858,68.8578982 L71.2799216,6.22209924" id="Path-2" stroke="#234275" stroke-width="2.5" mask="url(#mask-13)"></path>
                                                <path d="M38.6790272,76.3244173 L87.5803688,13.6886183" id="Path-2-Copy" stroke="#234275" stroke-width="2.5" mask="url(#mask-13)"></path>
                                                <path d="M54.9794744,84.205743 L103.880816,21.569944" id="Path-2-Copy-2" stroke="#234275" stroke-width="2.5" mask="url(#mask-13)"></path>
                                                <path d="M71.2799216,92.9166819 L120.181263,30.280883" id="Path-2-Copy-3" stroke="#234275" stroke-width="2.5" mask="url(#mask-13)"></path>
                                            </g>
                                        </g>
                                    </g>
                                    <g id="Group-4" transform="translate(14.504635, 104.116461)">
                                        <mask id="mask-15" fill="white">
                                            <use xlink:href="#path-14"></use>
                                        </mask>
                                        <path stroke="#5093C0" stroke-width="2.5" d="M1.25,2.02339045 L1.25,27.8494378 L24.4439252,39.4572711 L24.4439252,13.6312238 L1.25,2.02339045 Z"></path>
                                        <polygon id="Path-15-Copy" fill="#FFFFFF" opacity="0.806756882" mask="url(#mask-15)" points="-32.7390337 55.5840865 65.4780675 -11.1997786 65.4780675 -14.1034249 -45.5859964 59.7321527"></polygon>
                                        <polygon id="Path-15-Copy-2" fill="#FFFFFF" opacity="0.806756882" mask="url(#mask-15)" points="-20.7209074 65.5394453 78.7394483 -3.73325954 71.2799216 -8.71093893 -39.7841423 67.6134784"></polygon>
                                        <polygon id="Path-11-Copy-3" fill="#45C3DB" mask="url(#mask-15)" points="0 14.1034249 0 16.5922646 25.6939252 29.4512697 25.6939252 26.96243"></polygon>
                                    </g>
                                    <g id="Group-5" transform="translate(52.631105, 123.612372)">
                                        <mask id="mask-17" fill="white">
                                            <use xlink:href="#path-16"></use>
                                        </mask>
                                        <path stroke="#5093C0" stroke-width="2.5" d="M1.25,2.02339045 L1.25,27.8494378 L24.4439252,39.4572711 L24.4439252,13.6312238 L1.25,2.02339045 Z"></path>
                                        <polygon id="Path-15-Copy" fill="#FFFFFF" opacity="0.806756882" mask="url(#mask-17)" points="-7.87394483 44.7991145 90.3431564 -21.9847506 90.3431564 -24.8883969 -20.7209074 48.9471807"></polygon>
                                        <polygon id="Path-11-Copy-2" fill="#45C3DB" mask="url(#mask-17)" points="0 12.8590051 0 15.3478448 25.6939252 28.2068499 25.6939252 25.7180102"></polygon>
                                    </g>
                                    <polygon id="Path-12" fill="#336995" points="123.496608 176.707618 123.496608 129.419664 144.631934 120.708725 144.631934 168.411486"></polygon>
                                    <polygon id="Path-12-Copy-2" fill="#2F6189" points="125.568699 175.878005 125.568699 131.12498 142.559843 124.027178 142.559843 169.118194"></polygon>
                                    <ellipse id="Oval-Copy-3" stroke="#41CBDA" stroke-width="1.875" transform="translate(129.394940, 152.547047) rotate(27.000000) translate(-129.394940, -152.547047) " cx="129.39494" cy="152.547047" rx="1" ry="1.55085726"></ellipse>
                                    <g id="Group-18" transform="translate(137.586825, 79.228064)">
                                        <mask id="mask-19" fill="white">
                                            <use xlink:href="#path-18"></use>
                                        </mask>
                                        <path stroke="#2C5D85" stroke-width="2.5" d="M1.25,25.1289257 L19.8853256,17.8141045 L19.8853256,1.86719392 L1.25,9.54775614 L1.25,25.1289257 Z"></path>
                                        <polygon id="Path-15-Copy" fill="#FFFFFF" opacity="0.806756882" mask="url(#mask-19)" points="-14.5046352 41.4806616 39.3697241 -33.5993359 34.3967063 -29.8660763 -17.4055622 38.9918219"></polygon>
                                    </g>
                                </g>
                            </g>
                        </g>
                    </g>
                    <g id="Group-17-Copy-2" transform="translate(83.000000, 137.000000)">
                        <path d="M15.3760541,60.063998 L14.263243,71.4358904 C16.9525366,73.6547962 19.8272987,73.9321595 22.8875294,72.2679801 C22.8875294,65.2414449 22.3311238,61.1734509 21.2183127,60.063998 L15.3760541,60.063998 Z" id="Path-20" fill="#FFFFFF"></path>
                        <mask id="mask-21" fill="white">
                            <use xlink:href="#path-20"></use>
                        </mask>
                        <use id="Path-19" fill="#44C6DB" xlink:href="#path-20"></use>
                        <path d="M28.5882157,57.4092356 C15.9200912,53.5263035 13.0098464,45.4956939 19.8574812,33.3174069 C30.1289335,15.0499763 12.5255536,-1.89372741 25.3355891,-5.6001626 C38.1456246,-9.30659779 38.3460953,2.07745315 36.2918049,17.4326847 C34.2375144,32.7879162 35.9494231,31.4641893 37.3189501,44.4367125 C38.2319681,53.0850612 35.3217233,57.4092356 28.5882157,57.4092356 Z" id="Path-19-Copy" fill="#336995" opacity="0.202869234" mask="url(#mask-21)"></path>
                    </g>
                </g>
                <g id="Group-22-Copy" transform="translate(273.000000, 45.000000)">
                    <ellipse id="Oval" fill="url(#linearGradient-10)" cx="56.5" cy="71" rx="56.5" ry="57"></ellipse>
                    <path d="M61.70038,105.736935 C52.7886951,104.234964 46,96.481703 46,87.1428571 C46,76.7283447 54.4426304,68.2857143 64.8571429,68.2857143 C65.4762425,68.2857143 66.088374,68.3155489 66.6921778,68.3738589 C70.066164,55.4987069 81.7809539,46 95.7142857,46 C109.634704,46 121.34069,55.4811078 124.726991,68.3380686 C125.194409,68.303372 125.666571,68.2857143 126.142857,68.2857143 C136.55737,68.2857143 145,76.7283447 145,87.1428571 C145,97.4907391 136.665053,105.89189 126.342505,105.998965 L61.7241379,106 L61.70038,105.736935 Z" id="Combined-Shape-Copy-4" fill="url(#linearGradient-22)"></path>
                    <path d="M663.84049,45.7566421 C657.102545,44.507622 652,38.5996927 652,31.5 C652,23.4918711 658.491871,17 666.5,17 C666.924211,17 667.344168,17.0182168 667.75913,17.0539108 C670.322952,7.23350173 679.085102,0 689.5,0 C699.914898,0 708.677048,7.23350173 711.24087,17.0539108 C711.655832,17.0182168 712.075789,17 712.5,17 C720.508129,17 727,23.4918711 727,31.5 C727,39.2703612 720.887904,45.6131659 713.209163,45.9829616 L713.206897,46 L663.862069,46 L663.84049,45.7566421 Z" id="Combined-Shape-Copy-5" fill="url(#linearGradient-22)"></path>
                    <path d="M812.209163,173.982962 L812.206897,174 L788,174 L788.006959,173.994587 C775.808225,173.726501 766,163.534121 766,151 C766,138.297451 776.073593,128 788.5,128 C798.914898,128 807.677048,135.233502 810.24087,145.053911 C810.655832,145.018217 811.075789,145 811.5,145 C819.508129,145 826,151.491871 826,159.5 C826,167.270361 819.887904,173.613166 812.209163,173.982962 Z" id="Combined-Shape-Copy-6" fill="url(#linearGradient-22)"></path>
                </g>
            </g>
        </g>
    </g>
</svg>